<svg version="1.1" id="Layer_1" xmlns="http://www.w3.org/2000/svg" xmlns:xlink="http://www.w3.org/1999/xlink" x="0px" y="0px"
	 width="100%" viewBox="0 0 1024 1024" enable-background="new 0 0 1024 1024" xml:space="preserve">
<path opacity="1.000000" stroke="none" 
	d="
M316.875549,658.969238 
	C340.097656,619.429565 374.163788,596.291077 418.992249,589.010986 
	C424.059448,588.188171 429.267487,587.934631 434.411072,587.926086 
	C486.055145,587.840271 537.704529,587.408875 589.342041,587.991333 
	C632.638672,588.479736 668.362183,605.988464 695.781860,639.569275 
	C715.669495,663.925598 725.707764,692.664429 731.335388,723.198975 
	C734.054382,737.951660 735.059998,752.869995 736.000916,767.802185 
	C736.451965,774.961121 736.157227,775.332581 729.331238,775.332886 
	C585.060547,775.339294 440.789825,775.332153 296.519135,775.388855 
	C292.409637,775.390442 289.484009,775.299561 289.765808,769.710999 
	C291.314270,739.007385 294.995422,708.743408 306.713959,679.974182 
	C309.608093,672.868896 312.992401,666.003479 316.875549,658.969238 
z"/>
<path  opacity="1.000000" stroke="none" 
	d="
M319.884521,638.853882 
	C304.678650,659.609314 295.053925,682.516541 289.412048,707.105713 
	C288.180389,712.473816 286.113159,714.335205 280.473511,714.317810 
	C215.152374,714.116821 149.830414,714.187317 84.508659,714.178772 
	C77.955963,714.177917 77.649681,713.998779 77.828674,707.442017 
	C78.872963,669.187073 84.028824,631.739136 101.859917,597.219177 
	C124.919914,552.576355 161.518097,526.179626 211.096512,517.947327 
	C216.161514,517.106262 221.373154,516.837708 226.517334,516.831970 
	C279.841125,516.772156 333.165344,516.722107 386.488678,516.903198 
	C401.427216,516.953918 415.852753,520.353821 429.889526,525.396362 
	C432.285309,526.257019 434.303345,527.677002 436.260712,529.260071 
	C443.418579,535.049316 450.952087,540.634583 459.556000,543.660095 
	C473.894775,548.702148 483.278107,559.246582 492.421936,570.329163 
	C494.390900,572.715637 496.682312,574.984863 497.596130,578.170105 
	C495.938354,580.077332 493.805634,579.310730 491.948395,579.317200 
	C473.951813,579.379822 455.953217,579.195251 437.958435,579.384888 
	C389.058044,579.900269 349.975311,600.099487 319.884521,638.853882 
z"/>
<path  opacity="1.000000" stroke="none" 
	d="
M940.256714,641.956421 
	C945.492249,663.646301 947.323730,685.328613 948.044434,707.134094 
	C948.266541,713.853455 947.910217,714.122437 941.048889,714.125427 
	C887.225769,714.148621 833.402649,714.151978 779.579529,714.161499 
	C767.748474,714.163574 755.913391,713.989563 744.088501,714.260498 
	C739.765503,714.359497 738.003723,712.860901 737.046143,708.672913 
	C730.999390,682.227478 720.826660,657.567200 703.890625,636.122925 
	C678.634460,604.143677 645.615173,585.699585 605.268005,580.168823 
	C600.112793,579.462158 594.986450,579.375549 589.828796,579.371643 
	C571.498962,579.357788 553.169128,579.376038 534.839294,579.350037 
	C532.744873,579.347046 530.571838,579.663086 528.637024,578.716553 
	C528.283508,576.528198 529.582642,575.296509 530.594360,574.072388 
	C534.519409,569.323608 538.422668,564.545288 542.579041,560.002136 
	C548.342285,553.702698 554.699829,548.333923 562.985596,545.247681 
	C570.306030,542.520996 577.473206,538.914185 583.397095,533.785400 
	C594.393982,524.264465 607.723267,521.182861 621.371582,518.684631 
	C628.586121,517.364075 635.873474,516.813049 643.222778,516.817871 
	C693.046631,516.850586 742.876831,517.316101 792.692749,516.681030 
	C848.605347,515.968201 904.235046,548.037903 929.271851,608.393250 
	C933.746460,619.179993 937.351746,630.230896 940.256714,641.956421 
z"/>
<path  opacity="1.000000" stroke="none" 
	d="
M188.268448,390.468018 
	C180.757172,349.503815 190.513962,313.688843 218.576660,283.404053 
	C238.468567,261.937042 263.321777,249.451950 292.527893,246.680893 
	C339.262421,242.246750 376.545715,259.548309 404.361572,297.132233 
	C414.090668,310.277954 420.047913,325.259827 423.506744,341.261383 
	C424.140259,344.192139 423.701721,346.209290 421.673615,348.437805 
	C405.099701,366.650269 394.736633,387.984467 390.679626,412.236664 
	C388.808380,423.422760 388.454529,434.766388 390.095306,446.059967 
	C390.593170,449.486938 389.858337,452.072174 387.167694,454.476501 
	C363.511719,475.615051 335.745697,486.276398 304.157349,486.088074 
	C248.496826,485.756287 199.111267,444.875519 188.268448,390.468018 
z"/>
<path  opacity="1.000000" stroke="none" 
	d="
M624.884521,379.070038 
	C619.540588,368.017426 613.197144,358.065491 604.980530,349.412170 
	C602.466797,346.764862 601.731995,344.240204 602.554321,340.484528 
	C613.328308,291.278717 653.819275,253.537537 703.295532,246.844589 
	C769.405151,237.901535 829.470764,283.145996 839.135498,349.166260 
	C848.529114,413.334290 803.490784,474.324036 739.148438,484.378815 
	C703.396545,489.965759 671.587952,480.833191 643.344604,458.388733 
	C637.862122,454.031891 635.510071,449.806396 636.264282,442.037842 
	C638.372314,420.325195 634.618469,399.240295 624.884521,379.070038 
z"/>
<path  opacity="1.000000" stroke="none" 
	d="
M402.022278,463.733429 
	C392.191345,425.185486 398.828186,390.229736 423.564636,359.463409 
	C443.475830,334.698608 469.659241,320.751648 501.449615,317.563416 
	C560.695068,311.621765 614.301025,351.076477 626.060425,409.365143 
	C639.002075,473.514587 595.207214,536.228516 530.594482,546.071411 
	C473.105103,554.829163 419.996307,520.945557 402.022278,463.733429 
z"/>
</svg>