<svg version="1.1" id="Layer_1" xmlns="http://www.w3.org/2000/svg" xmlns:xlink="http://www.w3.org/1999/xlink" x="0px" y="0px"
	 width="100%" viewBox="0 0 1024 1024" enable-background="new 0 0 1024 1024" xml:space="preserve">
<path  opacity="1.000000" stroke="none" 
	d="
M316.875549,658.969238 
	C340.097656,619.429565 374.163788,596.291077 418.992249,589.010986 
	C424.059448,588.188171 429.267487,587.934631 434.411072,587.926086 
	C486.055145,587.840271 537.704529,587.408875 589.342041,587.991333 
	C632.638672,588.479736 668.362183,605.988464 695.781860,639.569275 
	C715.669495,663.925598 725.707764,692.664429 731.335388,723.198975 
	C734.054382,737.951660 735.059998,752.869995 736.000916,767.802185 
	C736.451965,774.961121 736.157227,775.332581 729.331238,775.332886 
	C585.060547,775.339294 440.789825,775.332153 296.519135,775.388855 
	C292.409637,775.390442 289.484009,775.299561 289.765808,769.710999 
	C291.314270,739.007385 294.995422,708.743408 306.713959,679.974182 
	C309.608093,672.868896 312.992401,666.003479 316.875549,658.969238 
z"/>

<path  opacity="1.000000" stroke="none" 
	d="
M402.022278,463.733429 
	C392.191345,425.185486 398.828186,390.229736 423.564636,359.463409 
	C443.475830,334.698608 469.659241,320.751648 501.449615,317.563416 
	C560.695068,311.621765 614.301025,351.076477 626.060425,409.365143 
	C639.002075,473.514587 595.207214,536.228516 530.594482,546.071411 
	C473.105103,554.829163 419.996307,520.945557 402.022278,463.733429 
z"/>
</svg>