<svg xmlns="http://www.w3.org/2000/svg" xmlns:xlink="http://www.w3.org/1999/xlink" width="500" zoomAndPan="magnify" viewBox="0 0 375 374.999991" height="500" preserveAspectRatio="xMidYMid meet" version="1.0"><defs><g/><clipPath id="b78617efa1"><path d="M 101.214844 124.167969 L 203.964844 124.167969 L 203.964844 250.917969 L 101.214844 250.917969 Z M 101.214844 124.167969 " clip-rule="nonzero"/></clipPath></defs><path stroke-linecap="round" transform="matrix(-0.53033, 0.53033, -0.53033, -0.53033, 207.657999, 180.764652)" fill="none" stroke-linejoin="miter" d="M 2.002353 2.000518 L 8.104832 1.996835 " stroke="#f6a80b" stroke-width="4" stroke-opacity="1" stroke-miterlimit="4"/><g fill="#000000" fill-opacity="1"><g transform="translate(152.569667, 181.713826)"><g><path d="M 13.546875 -3.9375 L 4.75 -3.9375 L 3.09375 0 L 0.03125 0 L 7.71875 -17.4375 L 10.734375 -17.4375 L 18.359375 0 L 15.21875 0 Z M 12.421875 -6.546875 L 9.140625 -14.296875 L 5.859375 -6.546875 Z M 12.421875 -6.546875 "/></g></g></g><g fill="#000000" fill-opacity="1"><g transform="translate(170.938887, 181.713826)"><g><path d="M 10.0625 0 L 7.03125 0 L 0.078125 -17.4375 L 3.234375 -17.4375 L 8.625 -3.265625 L 14.046875 -17.4375 L 17.109375 -17.4375 Z M 10.0625 0 "/></g></g></g><g fill="#000000" fill-opacity="1"><g transform="translate(188.113354, 181.713826)"><g><path d="M 14.203125 -14.796875 L 8.671875 -14.796875 L 8.671875 0 L 5.734375 0 L 5.734375 -14.796875 L 0.21875 -14.796875 L 0.21875 -17.4375 L 14.203125 -17.4375 Z M 14.203125 -14.796875 "/></g></g></g><g fill="#000000" fill-opacity="1"><g transform="translate(202.524979, 181.713826)"><g><path d="M 3.5 -14.984375 C 5.28125 -16.671875 7.472656 -17.515625 10.078125 -17.515625 C 12.691406 -17.515625 14.882812 -16.671875 16.65625 -14.984375 C 18.4375 -13.296875 19.328125 -11.207031 19.328125 -8.71875 C 19.328125 -6.226562 18.4375 -4.128906 16.65625 -2.421875 C 14.882812 -0.722656 12.691406 0.125 10.078125 0.125 C 7.472656 0.125 5.28125 -0.722656 3.5 -2.421875 C 1.726562 -4.128906 0.84375 -6.226562 0.84375 -8.71875 C 0.84375 -11.207031 1.726562 -13.296875 3.5 -14.984375 Z M 10.109375 -14.875 C 8.378906 -14.875 6.898438 -14.28125 5.671875 -13.09375 C 4.441406 -11.90625 3.828125 -10.445312 3.828125 -8.71875 C 3.828125 -6.988281 4.445312 -5.519531 5.6875 -4.3125 C 6.925781 -3.113281 8.398438 -2.515625 10.109375 -2.515625 C 11.816406 -2.515625 13.273438 -3.113281 14.484375 -4.3125 C 15.703125 -5.519531 16.3125 -6.988281 16.3125 -8.71875 C 16.3125 -10.445312 15.703125 -11.90625 14.484375 -13.09375 C 13.273438 -14.28125 11.816406 -14.875 10.109375 -14.875 Z M 10.109375 -14.875 "/></g></g></g><g fill="#000000" fill-opacity="1"><g transform="translate(152.569667, 210.963224)"><g><path d="M 18.03125 -16.34375 L 7.234375 -16.34375 L 7.234375 -12.28125 L 16.984375 -12.28125 L 16.984375 -8.203125 L 7.234375 -8.203125 L 7.234375 -4.078125 L 18.34375 -4.078125 L 18.34375 0 L 2.046875 0 L 2.046875 -20.421875 L 18.03125 -20.421875 Z M 18.03125 -16.34375 "/></g></g></g><g fill="#000000" fill-opacity="1"><g transform="translate(172.221026, 210.963224)"><g><path d="M 13.890625 -10.671875 L 21.203125 0 L 15 0 L 10.59375 -6.5 L 6.1875 0 L 0.140625 0 L 7.4375 -10.4375 L 0.609375 -20.421875 L 6.65625 -20.421875 L 10.59375 -14.46875 L 14.53125 -20.421875 L 20.625 -20.421875 Z M 13.890625 -10.671875 "/></g></g></g><g fill="#000000" fill-opacity="1"><g transform="translate(193.621773, 210.963224)"><g><path d="M 2.046875 -20.421875 L 10.9375 -20.421875 C 13.539062 -20.421875 15.5625 -19.800781 17 -18.5625 C 18.445312 -17.332031 19.171875 -15.578125 19.171875 -13.296875 C 19.171875 -10.910156 18.445312 -9.054688 17 -7.734375 C 15.5625 -6.410156 13.539062 -5.75 10.9375 -5.75 L 7.234375 -5.75 L 7.234375 0 L 2.046875 0 Z M 7.234375 -16.34375 L 7.234375 -9.828125 L 10.671875 -9.828125 C 11.816406 -9.828125 12.703125 -10.109375 13.328125 -10.671875 C 13.953125 -11.234375 14.265625 -12.050781 14.265625 -13.125 C 14.265625 -14.175781 13.953125 -14.972656 13.328125 -15.515625 C 12.703125 -16.066406 11.816406 -16.34375 10.671875 -16.34375 Z M 7.234375 -16.34375 "/></g></g></g><g fill="#000000" fill-opacity="1"><g transform="translate(213.448078, 210.963224)"><g><path d="M 18.03125 -16.34375 L 7.234375 -16.34375 L 7.234375 -12.28125 L 16.984375 -12.28125 L 16.984375 -8.203125 L 7.234375 -8.203125 L 7.234375 -4.078125 L 18.34375 -4.078125 L 18.34375 0 L 2.046875 0 L 2.046875 -20.421875 L 18.03125 -20.421875 Z M 18.03125 -16.34375 "/></g></g></g><g fill="#000000" fill-opacity="1"><g transform="translate(233.099436, 210.963224)"><g><path d="M 14.359375 0 L 11.3125 -5.75 L 7.234375 -5.75 L 7.234375 0 L 2.046875 0 L 2.046875 -20.421875 L 11.171875 -20.421875 C 13.878906 -20.421875 15.96875 -19.800781 17.4375 -18.5625 C 18.914062 -17.332031 19.65625 -15.578125 19.65625 -13.296875 C 19.65625 -10.148438 18.421875 -7.960938 15.953125 -6.734375 L 20.25 0 Z M 7.234375 -9.828125 L 11.171875 -9.828125 C 12.296875 -9.828125 13.171875 -10.109375 13.796875 -10.671875 C 14.421875 -11.234375 14.734375 -12.050781 14.734375 -13.125 C 14.734375 -14.175781 14.421875 -14.972656 13.796875 -15.515625 C 13.171875 -16.066406 12.296875 -16.34375 11.171875 -16.34375 L 7.234375 -16.34375 Z M 7.234375 -9.828125 "/></g></g></g><g fill="#000000" fill-opacity="1"><g transform="translate(254.208611, 210.963224)"><g><path d="M 17.65625 -16.25 L 11.5 -16.25 L 11.5 0 L 6.296875 0 L 6.296875 -16.25 L 0.203125 -16.25 L 0.203125 -20.453125 L 17.65625 -20.453125 Z M 17.65625 -16.25 "/></g></g></g><g clip-path="url(#b78617efa1)"><path fill="#f6a80b" d="M 164.304688 145.007812 L 164.207031 145.011719 L 164.007812 145.011719 L 163.894531 145.015625 L 163.710938 145.019531 L 163.59375 145.019531 L 163.417969 145.023438 L 163.296875 145.027344 L 163.117188 145.035156 L 163.003906 145.039062 L 162.8125 145.046875 L 162.710938 145.050781 L 162.46875 145.0625 L 162.417969 145.0625 L 162.128906 145.078125 L 162.042969 145.085938 L 161.835938 145.097656 L 161.726562 145.105469 C 161.726562 145.105469 161.59375 145.113281 161.546875 145.117188 C 161.507812 145.121094 161.46875 145.121094 161.429688 145.125 C 161.378906 145.128906 161.300781 145.132812 161.253906 145.140625 C 161.214844 145.140625 161.175781 145.144531 161.132812 145.148438 C 161.085938 145.152344 161.007812 145.160156 160.960938 145.160156 C 160.921875 145.164062 160.882812 145.167969 160.84375 145.171875 C 160.796875 145.175781 160.710938 145.183594 160.664062 145.1875 C 160.625 145.191406 160.589844 145.195312 160.554688 145.199219 C 160.503906 145.203125 160.394531 145.214844 160.34375 145.21875 C 160.320312 145.222656 160.292969 145.226562 160.265625 145.226562 C 160.207031 145.234375 160.042969 145.25 159.980469 145.257812 C 159.957031 145.257812 159.929688 145.261719 159.90625 145.265625 C 159.859375 145.269531 159.75 145.285156 159.695312 145.289062 C 159.660156 145.292969 159.625 145.296875 159.585938 145.300781 C 159.539062 145.308594 159.457031 145.316406 159.410156 145.324219 C 159.371094 145.328125 159.328125 145.332031 159.292969 145.335938 C 159.242188 145.34375 159.171875 145.351562 159.121094 145.359375 C 159.082031 145.363281 159.042969 145.367188 159 145.375 C 158.953125 145.382812 158.882812 145.390625 158.835938 145.398438 C 158.792969 145.402344 158.753906 145.40625 158.714844 145.414062 C 158.667969 145.421875 158.59375 145.429688 158.542969 145.4375 C 158.507812 145.445312 158.46875 145.449219 158.429688 145.453125 C 158.378906 145.460938 158.289062 145.476562 158.242188 145.480469 C 158.210938 145.488281 158.179688 145.492188 158.148438 145.496094 C 158.082031 145.507812 157.925781 145.53125 157.867188 145.539062 C 157.847656 145.542969 157.828125 145.546875 157.804688 145.550781 C 157.757812 145.558594 157.640625 145.578125 157.585938 145.585938 C 157.550781 145.589844 157.511719 145.597656 157.476562 145.605469 C 157.429688 145.613281 157.351562 145.625 157.304688 145.632812 C 157.265625 145.640625 157.222656 145.648438 157.183594 145.652344 C 157.136719 145.664062 157.070312 145.675781 157.023438 145.683594 C 156.980469 145.691406 156.941406 145.699219 156.898438 145.707031 C 156.851562 145.714844 156.789062 145.726562 156.742188 145.734375 C 156.699219 145.742188 156.660156 145.75 156.617188 145.757812 C 156.570312 145.765625 156.503906 145.78125 156.457031 145.789062 C 156.417969 145.796875 156.378906 145.804688 156.335938 145.8125 C 156.289062 145.824219 156.214844 145.835938 156.167969 145.847656 C 156.132812 145.855469 156.09375 145.859375 156.058594 145.867188 C 156.003906 145.878906 155.890625 145.90625 155.84375 145.914062 C 155.824219 145.917969 155.796875 145.921875 155.78125 145.925781 C 155.773438 145.929688 155.761719 145.929688 155.753906 145.933594 C 155.707031 145.941406 155.570312 145.972656 155.511719 145.984375 C 155.472656 145.992188 155.4375 146 155.402344 146.007812 C 155.355469 146.019531 155.28125 146.035156 155.234375 146.046875 C 155.191406 146.054688 155.152344 146.0625 155.113281 146.074219 C 155.066406 146.082031 155.003906 146.097656 154.957031 146.109375 C 154.917969 146.117188 154.875 146.128906 154.832031 146.140625 C 154.785156 146.148438 154.730469 146.164062 154.683594 146.175781 C 154.640625 146.183594 154.597656 146.195312 154.558594 146.207031 C 154.511719 146.214844 154.453125 146.230469 154.40625 146.242188 C 154.363281 146.253906 154.324219 146.261719 154.28125 146.273438 C 154.234375 146.285156 154.171875 146.300781 154.125 146.3125 C 154.085938 146.320312 154.046875 146.332031 154.007812 146.339844 C 153.957031 146.355469 153.878906 146.375 153.832031 146.386719 C 153.800781 146.394531 153.769531 146.402344 153.734375 146.410156 C 153.675781 146.429688 153.535156 146.464844 153.472656 146.484375 C 153.4375 146.492188 153.402344 146.503906 153.363281 146.511719 C 153.320312 146.523438 153.25 146.542969 153.199219 146.558594 C 153.160156 146.570312 153.121094 146.582031 153.082031 146.589844 C 153.035156 146.605469 152.976562 146.621094 152.929688 146.632812 C 152.890625 146.644531 152.847656 146.65625 152.804688 146.667969 C 152.761719 146.683594 152.707031 146.699219 152.660156 146.710938 C 152.617188 146.722656 152.578125 146.738281 152.535156 146.75 C 152.488281 146.761719 152.433594 146.777344 152.390625 146.792969 C 152.347656 146.804688 152.308594 146.816406 152.265625 146.828125 C 152.21875 146.84375 152.160156 146.863281 152.117188 146.875 C 152.078125 146.886719 152.039062 146.898438 151.996094 146.910156 C 151.949219 146.925781 151.878906 146.949219 151.832031 146.964844 C 151.800781 146.972656 151.765625 146.984375 151.730469 146.996094 C 151.671875 147.015625 151.53125 147.058594 151.472656 147.078125 C 151.441406 147.089844 151.410156 147.097656 151.382812 147.109375 C 151.335938 147.125 151.253906 147.152344 151.207031 147.167969 C 151.167969 147.179688 151.132812 147.191406 151.09375 147.203125 C 151.050781 147.21875 150.984375 147.238281 150.941406 147.253906 C 150.902344 147.269531 150.863281 147.28125 150.824219 147.296875 C 150.777344 147.3125 150.71875 147.332031 150.675781 147.347656 C 150.636719 147.359375 150.558594 147.386719 150.558594 147.386719 L 150.410156 147.441406 L 150.292969 147.480469 L 150.140625 147.535156 L 150.03125 147.574219 L 149.859375 147.640625 L 149.769531 147.671875 L 149.511719 147.769531 L 149.484375 147.78125 L 149.25 147.871094 L 149.167969 147.902344 L 148.988281 147.972656 L 148.894531 148.007812 L 148.730469 148.078125 L 148.632812 148.117188 L 148.464844 148.183594 L 148.371094 148.222656 L 148.199219 148.292969 L 148.117188 148.328125 L 147.914062 148.414062 L 147.859375 148.4375 L 147.601562 148.550781 L 147.335938 148.667969 L 147.316406 148.675781 L 147.078125 148.785156 L 147.03125 148.804688 L 146.820312 148.902344 L 146.765625 148.925781 L 146.558594 149.023438 L 146.507812 149.046875 L 146.292969 149.148438 L 146.253906 149.167969 L 146.003906 149.289062 C 131.867188 156.191406 122.121094 170.707031 122.121094 187.484375 C 122.121094 204.273438 131.886719 218.800781 146.042969 225.695312 L 146.292969 225.816406 L 146.316406 225.828125 L 146.550781 225.9375 L 146.582031 225.953125 L 146.816406 226.0625 L 146.839844 226.074219 L 147.101562 226.191406 C 147.1875 226.230469 147.277344 226.269531 147.367188 226.3125 L 147.625 226.425781 L 147.675781 226.445312 L 147.878906 226.535156 L 147.960938 226.570312 L 148.132812 226.644531 L 148.226562 226.683594 L 148.390625 226.75 L 148.492188 226.792969 L 148.648438 226.855469 L 148.75 226.898438 L 148.914062 226.960938 L 149.011719 227 L 149.199219 227.074219 L 149.273438 227.105469 L 149.523438 227.199219 L 149.636719 227.242188 L 149.78125 227.296875 L 149.90625 227.34375 L 150.039062 227.390625 L 150.171875 227.441406 L 150.300781 227.488281 L 150.433594 227.535156 L 150.5625 227.578125 L 150.699219 227.628906 L 150.824219 227.671875 L 150.960938 227.71875 L 151.085938 227.757812 L 151.226562 227.804688 L 151.476562 227.886719 L 151.621094 227.933594 L 151.738281 227.972656 L 151.882812 228.019531 L 152.003906 228.054688 L 152.148438 228.101562 L 152.269531 228.136719 L 152.414062 228.179688 L 152.535156 228.214844 L 152.683594 228.261719 L 152.804688 228.292969 L 152.949219 228.335938 L 153.070312 228.371094 L 153.21875 228.414062 L 153.335938 228.445312 L 153.480469 228.484375 L 153.621094 228.523438 L 153.742188 228.554688 L 153.886719 228.59375 L 154.011719 228.625 L 154.15625 228.660156 L 154.285156 228.695312 L 154.429688 228.730469 L 154.558594 228.761719 L 154.703125 228.796875 L 154.832031 228.828125 L 154.976562 228.859375 L 155.109375 228.890625 L 155.25 228.921875 L 155.394531 228.957031 L 155.523438 228.984375 L 155.785156 229.039062 L 155.914062 229.066406 L 156.0625 229.097656 L 156.195312 229.125 L 156.34375 229.152344 L 156.476562 229.179688 L 156.621094 229.207031 L 156.757812 229.234375 L 156.902344 229.257812 L 157.035156 229.285156 L 157.1875 229.3125 L 157.316406 229.335938 L 157.597656 229.382812 L 157.867188 229.425781 L 157.953125 229.4375 L 158.152344 229.46875 L 158.265625 229.488281 L 158.433594 229.511719 L 158.558594 229.527344 L 158.71875 229.550781 L 158.84375 229.570312 L 159.007812 229.589844 L 159.132812 229.609375 L 159.296875 229.628906 L 159.417969 229.644531 L 159.59375 229.664062 L 159.703125 229.675781 L 159.929688 229.703125 L 159.988281 229.707031 L 160.273438 229.738281 L 160.367188 229.75 L 160.558594 229.765625 L 160.671875 229.777344 L 160.847656 229.792969 L 160.96875 229.804688 L 161.136719 229.816406 L 161.257812 229.828125 L 161.429688 229.839844 L 161.550781 229.847656 L 161.730469 229.859375 L 161.839844 229.867188 L 162.050781 229.882812 L 162.128906 229.886719 L 162.421875 229.902344 L 162.484375 229.90625 L 162.710938 229.914062 L 162.816406 229.921875 L 163.003906 229.925781 L 163.121094 229.929688 L 163.296875 229.9375 L 163.417969 229.941406 L 163.59375 229.945312 L 163.714844 229.949219 L 163.894531 229.949219 L 164.007812 229.953125 L 164.207031 229.957031 L 164.597656 229.957031 C 164.597656 229.957031 164.871094 229.957031 164.871094 229.957031 L 164.941406 229.957031 L 165.191406 229.953125 L 165.21875 229.953125 L 165.488281 229.949219 L 165.558594 229.945312 L 165.796875 229.941406 L 165.835938 229.941406 L 166.105469 229.929688 L 166.171875 229.925781 L 166.402344 229.917969 L 166.453125 229.917969 L 166.722656 229.90625 L 166.78125 229.902344 L 167.007812 229.890625 L 167.066406 229.886719 L 167.335938 229.871094 L 167.386719 229.867188 L 167.613281 229.851562 L 167.675781 229.847656 L 167.945312 229.828125 L 167.988281 229.824219 L 168.222656 229.804688 L 168.285156 229.796875 L 168.554688 229.773438 L 168.578125 229.773438 L 168.828125 229.75 L 168.886719 229.742188 L 169.160156 229.714844 L 169.433594 229.683594 L 169.488281 229.675781 L 169.757812 229.644531 L 170.035156 229.609375 L 170.085938 229.605469 L 170.355469 229.570312 L 170.636719 229.53125 L 170.679688 229.523438 L 170.9375 229.484375 L 170.953125 229.484375 L 171.234375 229.441406 L 171.265625 229.433594 L 171.527344 229.394531 L 171.542969 229.390625 L 171.828125 229.34375 L 171.84375 229.339844 L 172.117188 229.292969 L 172.132812 229.289062 L 172.421875 229.238281 L 172.703125 229.183594 L 172.71875 229.179688 L 173.003906 229.125 L 173.289062 229.066406 L 173.300781 229.0625 L 173.585938 229.003906 L 173.875 228.9375 C 177.054688 228.230469 180.101562 227.164062 182.96875 225.78125 C 184.867188 224.871094 186.6875 223.820312 188.414062 222.644531 C 188.613281 222.511719 188.851562 222.4375 189.089844 222.4375 C 190.859375 222.4375 198.476562 222.4375 202.609375 222.4375 C 203.089844 222.4375 203.523438 222.722656 203.714844 223.164062 C 203.90625 223.601562 203.816406 224.113281 203.488281 224.464844 C 201.789062 226.257812 199.96875 227.933594 198.039062 229.480469 C 198.039062 229.480469 199.351562 233.425781 200.285156 236.234375 C 200.839844 237.894531 200.199219 239.71875 198.734375 240.675781 C 196.96875 241.808594 195.152344 242.859375 193.285156 243.816406 C 191.726562 244.605469 189.832031 244.246094 188.671875 242.941406 C 186.703125 240.730469 183.941406 237.621094 183.941406 237.621094 C 182.992188 237.992188 182.035156 238.332031 181.066406 238.648438 C 180.851562 238.765625 180.621094 238.859375 180.382812 238.933594 C 177.882812 239.695312 175.324219 240.28125 172.738281 240.675781 C 172.738281 240.675781 171.902344 244.75 171.300781 247.648438 C 170.949219 249.359375 169.488281 250.621094 167.742188 250.714844 C 166.660156 250.769531 165.578125 250.792969 164.496094 250.792969 C 163.410156 250.792969 162.328125 250.769531 161.246094 250.714844 C 159.503906 250.621094 158.042969 249.359375 157.691406 247.648438 C 157.089844 244.75 156.253906 240.675781 156.253906 240.675781 C 153.664062 240.28125 151.109375 239.695312 148.605469 238.933594 C 148.367188 238.859375 148.136719 238.765625 147.921875 238.648438 C 146.957031 238.332031 146 237.992188 145.050781 237.621094 C 145.050781 237.621094 142.289062 240.730469 140.316406 242.941406 C 139.160156 244.246094 137.261719 244.605469 135.703125 243.816406 C 133.835938 242.859375 132.019531 241.808594 130.253906 240.675781 C 128.789062 239.71875 128.152344 237.894531 128.703125 236.234375 C 129.636719 233.425781 130.949219 229.480469 130.949219 229.480469 C 127.867188 227.011719 125.066406 224.210938 122.597656 221.128906 C 122.597656 221.128906 118.652344 222.441406 115.84375 223.371094 C 114.183594 223.921875 112.363281 223.285156 111.410156 221.824219 C 110.269531 220.058594 109.222656 218.242188 108.257812 216.378906 C 107.46875 214.816406 107.828125 212.917969 109.136719 211.757812 C 111.351562 209.792969 114.460938 207.03125 114.460938 207.03125 C 113.023438 203.351562 112 199.527344 111.402344 195.621094 C 111.402344 195.621094 107.328125 194.785156 104.429688 194.183594 C 102.71875 193.832031 101.460938 192.371094 101.363281 190.628906 C 101.261719 188.53125 101.261719 186.433594 101.359375 184.339844 C 101.453125 182.589844 102.714844 181.125 104.429688 180.777344 C 107.328125 180.179688 111.402344 179.34375 111.402344 179.34375 C 112 175.441406 113.023438 171.613281 114.460938 167.933594 C 114.460938 167.933594 111.351562 165.175781 109.140625 163.203125 C 107.832031 162.042969 107.472656 160.148438 108.261719 158.589844 C 109.222656 156.722656 110.269531 154.90625 111.402344 153.140625 C 112.359375 151.675781 114.183594 151.039062 115.84375 151.589844 C 118.652344 152.523438 122.597656 153.835938 122.597656 153.835938 C 125.066406 150.753906 127.867188 147.953125 130.949219 145.484375 C 130.949219 145.484375 129.636719 141.539062 128.707031 138.726562 C 128.15625 137.070312 128.792969 135.25 130.257812 134.292969 C 132.019531 133.15625 133.835938 132.109375 135.703125 131.144531 C 137.261719 130.351562 139.160156 130.714844 140.320312 132.023438 C 141.269531 133.089844 142.398438 134.363281 143.324219 135.390625 C 144.351562 136.550781 145.976562 136.980469 147.441406 136.476562 C 147.613281 136.417969 147.785156 136.363281 147.957031 136.308594 C 148.160156 136.199219 148.378906 136.109375 148.609375 136.035156 C 150.546875 135.441406 152.515625 134.957031 154.507812 134.585938 C 155.367188 134.277344 156.085938 133.675781 156.539062 132.898438 L 157.683594 127.316406 C 158.035156 125.601562 159.5 124.339844 161.246094 124.242188 C 162.328125 124.195312 163.410156 124.167969 164.496094 124.171875 C 165.578125 124.167969 166.660156 124.195312 167.742188 124.242188 C 169.488281 124.339844 170.953125 125.601562 171.304688 127.316406 L 172.453125 132.898438 C 172.902344 133.675781 173.621094 134.277344 174.480469 134.585938 C 176.476562 134.957031 178.445312 135.441406 180.382812 136.035156 C 180.609375 136.109375 180.828125 136.199219 181.035156 136.308594 C 181.207031 136.363281 181.378906 136.417969 181.546875 136.476562 C 183.011719 136.980469 184.636719 136.550781 185.667969 135.390625 C 186.589844 134.363281 187.722656 133.089844 188.667969 132.023438 C 189.828125 130.714844 191.726562 130.351562 193.289062 131.144531 C 195.152344 132.109375 196.96875 133.15625 198.730469 134.292969 C 200.195312 135.25 200.832031 137.070312 200.28125 138.726562 C 199.351562 141.539062 198.039062 145.484375 198.039062 145.484375 C 199.96875 147.03125 201.789062 148.707031 203.488281 150.503906 C 203.816406 150.851562 203.902344 151.363281 203.710938 151.800781 C 203.523438 152.242188 203.089844 152.527344 202.609375 152.527344 C 198.476562 152.527344 190.859375 152.527344 189.089844 152.527344 C 188.851562 152.527344 188.613281 152.453125 188.417969 152.316406 C 186.699219 151.152344 184.890625 150.109375 183.003906 149.199219 C 182.832031 149.117188 182.660156 149.035156 182.484375 148.953125 L 182.480469 148.949219 L 182.21875 148.832031 L 181.96875 148.71875 L 181.945312 148.707031 L 181.6875 148.59375 L 181.445312 148.484375 L 181.40625 148.46875 L 181.15625 148.363281 L 180.914062 148.261719 L 180.863281 148.238281 L 180.617188 148.136719 L 180.375 148.042969 L 180.316406 148.015625 L 180.085938 147.925781 L 180.074219 147.921875 L 179.832031 147.828125 L 179.769531 147.804688 L 179.558594 147.722656 L 179.523438 147.707031 L 179.285156 147.621094 L 179.21875 147.597656 L 179.023438 147.523438 L 178.96875 147.503906 L 178.734375 147.421875 L 178.664062 147.398438 L 178.476562 147.332031 L 178.410156 147.308594 L 178.179688 147.230469 L 178.105469 147.207031 L 177.921875 147.144531 L 177.617188 147.042969 L 177.546875 147.023438 L 177.363281 146.964844 L 177.289062 146.941406 L 177.054688 146.867188 L 176.988281 146.847656 L 176.800781 146.792969 L 176.722656 146.765625 L 176.488281 146.695312 L 176.429688 146.679688 L 176.234375 146.625 L 176.152344 146.601562 L 175.914062 146.535156 L 175.867188 146.523438 L 175.664062 146.46875 L 175.582031 146.445312 L 175.363281 146.386719 L 175.335938 146.378906 L 175.3125 146.375 L 175.089844 146.316406 L 175.007812 146.296875 L 174.800781 146.246094 L 174.753906 146.234375 L 174.511719 146.175781 L 174.429688 146.15625 L 174.230469 146.109375 L 174.171875 146.09375 L 173.929688 146.039062 L 173.851562 146.019531 L 173.652344 145.976562 L 173.589844 145.964844 L 173.34375 145.910156 L 173.269531 145.894531 L 173.070312 145.855469 L 173.003906 145.839844 L 172.753906 145.792969 L 172.6875 145.777344 L 172.484375 145.742188 L 172.414062 145.726562 L 172.164062 145.683594 L 172.101562 145.671875 L 171.894531 145.636719 L 171.824219 145.621094 L 171.570312 145.578125 L 171.515625 145.570312 L 171.300781 145.535156 L 171.230469 145.523438 L 170.972656 145.484375 L 170.933594 145.476562 L 170.707031 145.445312 L 170.632812 145.433594 L 170.371094 145.398438 L 170.351562 145.398438 L 170.109375 145.363281 L 170.035156 145.355469 L 169.789062 145.324219 L 169.769531 145.320312 L 169.503906 145.289062 L 169.433594 145.28125 L 169.199219 145.257812 L 169.164062 145.253906 L 168.902344 145.226562 L 168.832031 145.21875 L 168.605469 145.195312 L 168.558594 145.191406 L 168.292969 145.167969 L 168.226562 145.160156 L 168.003906 145.144531 L 167.949219 145.140625 L 167.683594 145.117188 L 167.621094 145.113281 L 167.398438 145.097656 L 167.335938 145.097656 L 167.070312 145.078125 L 167.011719 145.078125 L 166.789062 145.066406 L 166.722656 145.0625 L 166.457031 145.050781 L 166.40625 145.046875 L 166.175781 145.039062 L 166.109375 145.035156 L 165.839844 145.027344 L 165.800781 145.023438 L 165.5625 145.019531 L 165.492188 145.019531 L 165.21875 145.011719 L 164.941406 145.011719 L 164.871094 145.007812 Z M 164.304688 145.007812 " fill-opacity="1" fill-rule="evenodd"/></g></svg>