<svg xmlns="http://www.w3.org/2000/svg" xmlns:xlink="http://www.w3.org/1999/xlink" width="500" zoomAndPan="magnify" viewBox="0 0 375 273.749983" height="365" preserveAspectRatio="xMidYMid meet" version="1.0"><defs><g/><clipPath id="c44b311415"><path d="M 0.171875 0 L 222 0 L 222 273.5 L 0.171875 273.5 Z M 0.171875 0 " clip-rule="nonzero"/></clipPath></defs><path stroke-linecap="round" transform="matrix(-0.530516, 0.530516, -0.530516, -0.530516, 230.11846, 122.301067)" fill="none" stroke-linejoin="miter" d="M 4.499796 4.500334 L 17.311622 4.500334 " stroke="#f6a80b" stroke-width="9" stroke-opacity="1" stroke-miterlimit="4"/><g fill="#000000" fill-opacity="1"><g transform="translate(111.062987, 124.256005)"><g><path d="M 29.25 -8.5 L 10.265625 -8.5 L 6.671875 0 L 0.046875 0 L 16.671875 -37.640625 L 23.171875 -37.640625 L 39.625 0 L 32.84375 0 Z M 26.828125 -14.140625 L 19.734375 -30.859375 L 12.640625 -14.140625 Z M 26.828125 -14.140625 "/></g></g></g><g fill="#000000" fill-opacity="1"><g transform="translate(150.727764, 124.256005)"><g><path d="M 21.71875 0 L 15.15625 0 L 0.15625 -37.640625 L 6.984375 -37.640625 L 18.609375 -7.046875 L 30.328125 -37.640625 L 36.9375 -37.640625 Z M 21.71875 0 "/></g></g></g><g fill="#000000" fill-opacity="1"><g transform="translate(187.812707, 124.256005)"><g><path d="M 30.640625 -31.9375 L 18.703125 -31.9375 L 18.703125 0 L 12.359375 0 L 12.359375 -31.9375 L 0.484375 -31.9375 L 0.484375 -37.640625 L 30.640625 -37.640625 Z M 30.640625 -31.9375 "/></g></g></g><g fill="#000000" fill-opacity="1"><g transform="translate(218.931822, 124.256005)"><g><path d="M 7.578125 -32.328125 C 11.410156 -35.972656 16.140625 -37.796875 21.765625 -37.796875 C 27.398438 -37.796875 32.132812 -35.972656 35.96875 -32.328125 C 39.800781 -28.691406 41.71875 -24.1875 41.71875 -18.8125 C 41.71875 -13.4375 39.800781 -8.910156 35.96875 -5.234375 C 32.132812 -1.566406 27.398438 0.265625 21.765625 0.265625 C 16.140625 0.265625 11.410156 -1.566406 7.578125 -5.234375 C 3.742188 -8.910156 1.828125 -13.4375 1.828125 -18.8125 C 1.828125 -24.1875 3.742188 -28.691406 7.578125 -32.328125 Z M 21.828125 -32.09375 C 18.097656 -32.09375 14.90625 -30.8125 12.25 -28.25 C 9.601562 -25.6875 8.28125 -22.539062 8.28125 -18.8125 C 8.28125 -15.082031 9.613281 -11.921875 12.28125 -9.328125 C 14.957031 -6.734375 18.140625 -5.4375 21.828125 -5.4375 C 25.515625 -5.4375 28.664062 -6.734375 31.28125 -9.328125 C 33.90625 -11.921875 35.21875 -15.082031 35.21875 -18.8125 C 35.21875 -22.539062 33.90625 -25.6875 31.28125 -28.25 C 28.664062 -30.8125 25.515625 -32.09375 21.828125 -32.09375 Z M 21.828125 -32.09375 "/></g></g></g><g fill="#000000" fill-opacity="1"><g transform="translate(111.062987, 187.414402)"><g><path d="M 38.921875 -35.265625 L 15.625 -35.265625 L 15.625 -26.515625 L 36.65625 -26.515625 L 36.65625 -17.703125 L 15.625 -17.703125 L 15.625 -8.8125 L 39.625 -8.8125 L 39.625 0 L 4.40625 0 L 4.40625 -44.09375 L 38.921875 -44.09375 Z M 38.921875 -35.265625 "/></g></g></g><g fill="#000000" fill-opacity="1"><g transform="translate(153.496296, 187.414402)"><g><path d="M 29.984375 -23.046875 L 45.796875 0 L 32.375 0 L 22.859375 -14.046875 L 13.359375 0 L 0.3125 0 L 16.0625 -22.546875 L 1.328125 -44.09375 L 14.359375 -44.09375 L 22.859375 -31.234375 L 31.359375 -44.09375 L 44.53125 -44.09375 Z M 29.984375 -23.046875 "/></g></g></g><g fill="#000000" fill-opacity="1"><g transform="translate(199.707072, 187.414402)"><g><path d="M 4.40625 -44.09375 L 23.625 -44.09375 C 29.25 -44.09375 33.613281 -42.757812 36.71875 -40.09375 C 39.820312 -37.425781 41.375 -33.632812 41.375 -28.71875 C 41.375 -23.550781 39.820312 -19.539062 36.71875 -16.6875 C 33.613281 -13.832031 29.25 -12.40625 23.625 -12.40625 L 15.625 -12.40625 L 15.625 0 L 4.40625 0 Z M 15.625 -35.265625 L 15.625 -21.21875 L 23.046875 -21.21875 C 25.523438 -21.21875 27.4375 -21.828125 28.78125 -23.046875 C 30.125 -24.265625 30.796875 -26.03125 30.796875 -28.34375 C 30.796875 -30.613281 30.125 -32.332031 28.78125 -33.5 C 27.4375 -34.675781 25.523438 -35.265625 23.046875 -35.265625 Z M 15.625 -35.265625 "/></g></g></g><g fill="#000000" fill-opacity="1"><g transform="translate(242.518143, 187.414402)"><g><path d="M 38.921875 -35.265625 L 15.625 -35.265625 L 15.625 -26.515625 L 36.65625 -26.515625 L 36.65625 -17.703125 L 15.625 -17.703125 L 15.625 -8.8125 L 39.625 -8.8125 L 39.625 0 L 4.40625 0 L 4.40625 -44.09375 L 38.921875 -44.09375 Z M 38.921875 -35.265625 "/></g></g></g><g fill="#000000" fill-opacity="1"><g transform="translate(284.951451, 187.414402)"><g><path d="M 30.984375 0 L 24.4375 -12.40625 L 15.625 -12.40625 L 15.625 0 L 4.40625 0 L 4.40625 -44.09375 L 24.125 -44.09375 C 29.957031 -44.09375 34.46875 -42.757812 37.65625 -40.09375 C 40.851562 -37.425781 42.453125 -33.632812 42.453125 -28.71875 C 42.453125 -21.914062 39.785156 -17.191406 34.453125 -14.546875 L 43.71875 0 Z M 15.625 -21.21875 L 24.125 -21.21875 C 26.5625 -21.21875 28.453125 -21.828125 29.796875 -23.046875 C 31.140625 -24.265625 31.8125 -26.03125 31.8125 -28.34375 C 31.8125 -30.613281 31.140625 -32.332031 29.796875 -33.5 C 28.453125 -34.675781 26.5625 -35.265625 24.125 -35.265625 L 15.625 -35.265625 Z M 15.625 -21.21875 "/></g></g></g><g fill="#000000" fill-opacity="1"><g transform="translate(330.532634, 187.414402)"><g><path d="M 38.109375 -35.078125 L 24.8125 -35.078125 L 24.8125 0 L 13.609375 0 L 13.609375 -35.078125 L 0.4375 -35.078125 L 0.4375 -44.15625 L 38.109375 -44.15625 Z M 38.109375 -35.078125 "/></g></g></g><g clip-path="url(#c44b311415)"><path fill="#f6a80b" d="M 136.402344 45 L 136.191406 45.003906 L 135.765625 45.007812 L 135.519531 45.011719 L 135.125 45.019531 L 134.871094 45.023438 L 134.488281 45.035156 L 133.84375 45.054688 L 133.59375 45.0625 L 133.183594 45.078125 L 132.960938 45.089844 L 132.441406 45.113281 L 132.332031 45.117188 L 131.707031 45.152344 L 131.519531 45.164062 L 131.078125 45.191406 L 130.835938 45.207031 C 130.835938 45.207031 130.554688 45.226562 130.449219 45.230469 C 130.363281 45.238281 130.277344 45.246094 130.191406 45.253906 C 130.089844 45.261719 129.921875 45.269531 129.820312 45.28125 C 129.734375 45.285156 129.648438 45.292969 129.558594 45.300781 C 129.457031 45.308594 129.289062 45.324219 129.183594 45.332031 C 129.101562 45.339844 129.015625 45.347656 128.933594 45.355469 C 128.828125 45.363281 128.648438 45.378906 128.539062 45.386719 C 128.464844 45.394531 128.386719 45.402344 128.308594 45.410156 C 128.195312 45.421875 127.960938 45.445312 127.855469 45.453125 C 127.800781 45.460938 127.742188 45.464844 127.6875 45.46875 C 127.554688 45.484375 127.199219 45.523438 127.070312 45.535156 C 127.015625 45.539062 126.960938 45.546875 126.910156 45.554688 C 126.804688 45.5625 126.566406 45.59375 126.453125 45.605469 C 126.375 45.613281 126.296875 45.625 126.21875 45.632812 C 126.113281 45.644531 125.941406 45.664062 125.835938 45.679688 C 125.75 45.6875 125.664062 45.699219 125.578125 45.710938 C 125.476562 45.722656 125.320312 45.742188 125.214844 45.757812 C 125.128906 45.765625 125.042969 45.777344 124.953125 45.789062 C 124.847656 45.804688 124.695312 45.824219 124.59375 45.835938 C 124.507812 45.851562 124.421875 45.859375 124.335938 45.875 C 124.230469 45.890625 124.070312 45.910156 123.964844 45.925781 C 123.886719 45.9375 123.800781 45.949219 123.71875 45.960938 C 123.613281 45.976562 123.417969 46.003906 123.316406 46.019531 C 123.246094 46.03125 123.175781 46.042969 123.109375 46.050781 C 122.972656 46.074219 122.628906 46.128906 122.507812 46.144531 C 122.460938 46.152344 122.417969 46.160156 122.375 46.167969 C 122.273438 46.183594 122.015625 46.226562 121.894531 46.246094 C 121.816406 46.257812 121.738281 46.269531 121.660156 46.285156 C 121.558594 46.300781 121.394531 46.332031 121.289062 46.347656 C 121.203125 46.363281 121.117188 46.378906 121.03125 46.394531 C 120.929688 46.410156 120.785156 46.4375 120.683594 46.457031 C 120.59375 46.46875 120.503906 46.488281 120.414062 46.503906 C 120.3125 46.523438 120.175781 46.546875 120.074219 46.566406 C 119.984375 46.585938 119.894531 46.601562 119.808594 46.617188 C 119.707031 46.636719 119.5625 46.664062 119.460938 46.683594 C 119.375 46.703125 119.289062 46.71875 119.203125 46.734375 C 119.097656 46.757812 118.9375 46.789062 118.839844 46.808594 C 118.761719 46.824219 118.679688 46.839844 118.601562 46.855469 C 118.480469 46.882812 118.234375 46.933594 118.132812 46.953125 C 118.089844 46.960938 118.039062 46.972656 118.003906 46.980469 C 117.984375 46.984375 117.960938 46.992188 117.9375 46.992188 C 117.839844 47.015625 117.542969 47.078125 117.417969 47.105469 C 117.335938 47.121094 117.257812 47.140625 117.179688 47.160156 C 117.078125 47.179688 116.921875 47.214844 116.820312 47.238281 C 116.730469 47.257812 116.644531 47.277344 116.558594 47.300781 C 116.457031 47.320312 116.324219 47.351562 116.222656 47.375 C 116.132812 47.394531 116.042969 47.417969 115.953125 47.441406 C 115.851562 47.464844 115.726562 47.492188 115.628906 47.515625 C 115.539062 47.539062 115.449219 47.558594 115.355469 47.582031 C 115.253906 47.605469 115.128906 47.636719 115.03125 47.660156 C 114.941406 47.683594 114.851562 47.703125 114.761719 47.726562 C 114.664062 47.75 114.527344 47.789062 114.425781 47.8125 C 114.339844 47.835938 114.257812 47.855469 114.171875 47.875 C 114.066406 47.90625 113.890625 47.953125 113.789062 47.976562 C 113.71875 47.996094 113.652344 48.011719 113.582031 48.03125 C 113.457031 48.066406 113.148438 48.144531 113.011719 48.183594 C 112.9375 48.203125 112.859375 48.222656 112.78125 48.246094 C 112.6875 48.273438 112.53125 48.316406 112.429688 48.34375 C 112.34375 48.367188 112.253906 48.394531 112.167969 48.417969 C 112.070312 48.445312 111.941406 48.480469 111.84375 48.507812 C 111.757812 48.535156 111.664062 48.558594 111.578125 48.585938 C 111.476562 48.613281 111.359375 48.648438 111.261719 48.675781 C 111.171875 48.703125 111.082031 48.730469 110.988281 48.757812 C 110.894531 48.785156 110.773438 48.820312 110.675781 48.851562 C 110.585938 48.875 110.5 48.90625 110.410156 48.929688 C 110.3125 48.960938 110.183594 49 110.085938 49.03125 C 110.003906 49.054688 109.917969 49.082031 109.832031 49.109375 C 109.730469 49.140625 109.570312 49.191406 109.476562 49.21875 C 109.402344 49.242188 109.328125 49.265625 109.253906 49.289062 C 109.125 49.332031 108.820312 49.429688 108.695312 49.46875 C 108.632812 49.488281 108.566406 49.511719 108.5 49.535156 C 108.40625 49.566406 108.226562 49.625 108.121094 49.660156 C 108.042969 49.683594 107.960938 49.710938 107.878906 49.738281 C 107.785156 49.769531 107.644531 49.816406 107.546875 49.851562 C 107.464844 49.878906 107.382812 49.90625 107.296875 49.9375 C 107.199219 49.96875 107.070312 50.015625 106.976562 50.046875 C 106.890625 50.078125 106.722656 50.136719 106.722656 50.136719 L 106.398438 50.25 L 106.152344 50.339844 L 105.820312 50.457031 L 105.585938 50.542969 L 105.214844 50.679688 L 105.023438 50.75 L 104.460938 50.960938 L 104.40625 50.984375 L 103.898438 51.179688 L 103.71875 51.25 L 103.335938 51.398438 L 103.132812 51.480469 L 102.773438 51.625 L 102.5625 51.707031 L 102.203125 51.855469 L 102.003906 51.9375 L 101.628906 52.09375 L 101.449219 52.171875 L 101.015625 52.355469 L 100.898438 52.402344 L 100.339844 52.648438 L 99.765625 52.898438 L 99.722656 52.917969 L 99.210938 53.148438 L 99.105469 53.199219 L 98.652344 53.40625 L 98.53125 53.460938 L 98.089844 53.667969 L 97.976562 53.722656 L 97.511719 53.941406 L 97.429688 53.980469 L 96.886719 54.242188 C 66.367188 69.144531 45.320312 100.492188 45.320312 136.714844 C 45.320312 172.96875 66.402344 204.335938 96.96875 219.226562 L 97.515625 219.488281 L 97.5625 219.511719 L 98.070312 219.753906 L 98.132812 219.78125 L 98.644531 220.019531 L 98.695312 220.042969 L 99.253906 220.296875 C 99.449219 220.386719 99.640625 220.472656 99.832031 220.558594 L 100.390625 220.804688 L 100.496094 220.847656 L 100.9375 221.042969 L 101.109375 221.113281 L 101.488281 221.277344 L 101.6875 221.359375 L 102.042969 221.507812 L 102.257812 221.59375 L 102.601562 221.734375 L 102.820312 221.828125 L 103.171875 221.964844 L 103.378906 222.050781 L 103.789062 222.207031 L 103.949219 222.269531 L 104.488281 222.476562 L 104.730469 222.570312 L 105.046875 222.6875 L 105.316406 222.789062 L 105.605469 222.894531 L 106.167969 223.097656 L 106.457031 223.199219 L 106.730469 223.296875 L 107.027344 223.402344 L 107.296875 223.496094 L 107.59375 223.59375 L 107.859375 223.683594 L 108.164062 223.789062 L 108.703125 223.964844 L 109.015625 224.0625 L 109.269531 224.144531 L 109.585938 224.246094 L 109.84375 224.324219 L 110.15625 224.421875 L 110.417969 224.503906 L 110.734375 224.59375 L 110.996094 224.671875 L 111.308594 224.765625 L 111.570312 224.84375 L 111.886719 224.933594 L 112.148438 225.007812 L 112.46875 225.097656 L 112.71875 225.167969 L 113.03125 225.253906 L 113.335938 225.332031 L 113.59375 225.402344 L 113.910156 225.484375 L 114.183594 225.558594 L 114.496094 225.636719 L 114.773438 225.703125 L 115.082031 225.78125 L 115.363281 225.851562 L 115.667969 225.921875 L 115.953125 225.992188 L 116.261719 226.0625 L 116.550781 226.132812 L 116.851562 226.199219 L 117.167969 226.269531 L 117.445312 226.332031 L 118.011719 226.453125 L 118.289062 226.507812 L 118.613281 226.574219 L 118.898438 226.636719 L 119.210938 226.699219 L 119.503906 226.753906 L 119.816406 226.8125 L 120.105469 226.867188 L 120.421875 226.925781 L 120.707031 226.976562 L 121.039062 227.039062 L 121.3125 227.085938 L 121.667969 227.148438 L 121.917969 227.1875 L 122.507812 227.285156 L 122.6875 227.3125 L 123.121094 227.378906 L 123.367188 227.417969 L 123.730469 227.472656 L 123.996094 227.507812 L 124.34375 227.558594 L 124.617188 227.597656 L 124.964844 227.640625 L 125.234375 227.675781 L 125.589844 227.722656 L 125.847656 227.753906 L 126.230469 227.796875 L 126.464844 227.828125 L 126.957031 227.882812 L 127.082031 227.894531 L 127.695312 227.960938 L 127.898438 227.980469 L 128.316406 228.023438 L 128.5625 228.042969 L 128.941406 228.078125 L 129.199219 228.101562 L 129.566406 228.132812 L 129.828125 228.152344 L 130.199219 228.179688 L 130.457031 228.199219 L 130.847656 228.226562 L 131.085938 228.242188 L 131.535156 228.269531 L 131.710938 228.28125 L 132.335938 228.3125 L 132.476562 228.320312 L 132.964844 228.339844 L 133.195312 228.351562 L 133.597656 228.367188 L 133.847656 228.375 L 134.492188 228.394531 L 134.871094 228.40625 L 135.128906 228.410156 L 135.523438 228.417969 L 135.765625 228.421875 L 136.195312 228.425781 L 136.402344 228.429688 L 137.039062 228.429688 C 137.039062 228.429688 137.628906 228.429688 137.628906 228.429688 L 137.78125 228.425781 L 138.320312 228.421875 L 138.378906 228.421875 L 138.964844 228.410156 L 139.113281 228.40625 L 139.625 228.394531 L 139.714844 228.394531 L 140.296875 228.371094 L 140.4375 228.367188 L 140.933594 228.347656 L 141.042969 228.34375 L 141.625 228.320312 L 141.757812 228.3125 L 142.246094 228.285156 L 142.371094 228.28125 L 142.949219 228.242188 L 143.0625 228.234375 L 143.554688 228.203125 L 143.6875 228.195312 L 144.269531 228.148438 L 144.355469 228.140625 L 144.867188 228.101562 L 145 228.089844 L 145.582031 228.039062 L 145.636719 228.03125 L 146.171875 227.980469 L 146.300781 227.96875 L 146.890625 227.90625 L 147.476562 227.84375 L 147.601562 227.828125 L 148.183594 227.761719 L 148.777344 227.683594 L 148.886719 227.671875 L 149.476562 227.59375 L 150.074219 227.511719 L 150.167969 227.496094 L 150.730469 227.414062 L 150.761719 227.410156 L 151.367188 227.316406 L 151.4375 227.304688 L 152.003906 227.214844 L 152.039062 227.207031 L 152.652344 227.105469 L 152.6875 227.097656 L 153.273438 226.996094 L 153.3125 226.988281 L 153.929688 226.875 L 154.542969 226.757812 L 154.574219 226.753906 L 155.191406 226.632812 L 155.808594 226.503906 L 155.828125 226.5 L 156.449219 226.371094 L 157.074219 226.230469 C 163.9375 224.699219 170.515625 222.398438 176.707031 219.417969 C 180.804688 217.449219 184.734375 215.179688 188.46875 212.644531 C 188.898438 212.351562 189.410156 212.195312 189.929688 212.195312 C 193.742188 212.195312 210.191406 212.195312 219.121094 212.195312 C 220.15625 212.195312 221.09375 212.808594 221.507812 213.761719 C 221.917969 214.710938 221.726562 215.816406 221.019531 216.570312 C 217.347656 220.441406 213.417969 224.0625 209.25 227.402344 C 209.25 227.402344 212.082031 235.921875 214.097656 241.988281 C 215.292969 245.574219 213.917969 249.515625 210.753906 251.578125 C 206.941406 254.023438 203.015625 256.289062 198.984375 258.359375 C 195.617188 260.0625 191.527344 259.289062 189.019531 256.464844 C 184.769531 251.695312 178.804688 244.980469 178.804688 244.980469 C 176.757812 245.777344 174.691406 246.519531 172.601562 247.195312 C 172.136719 247.449219 171.640625 247.65625 171.125 247.816406 C 165.722656 249.460938 160.203125 250.726562 154.613281 251.578125 C 154.613281 251.578125 152.808594 260.375 151.511719 266.632812 C 150.753906 270.332031 147.597656 273.050781 143.828125 273.257812 C 141.492188 273.371094 139.152344 273.425781 136.816406 273.425781 C 134.476562 273.425781 132.140625 273.371094 129.804688 273.257812 C 126.035156 273.050781 122.878906 270.332031 122.121094 266.632812 C 120.824219 260.375 119.015625 251.578125 119.015625 251.578125 C 113.425781 250.726562 107.910156 249.460938 102.507812 247.816406 C 101.988281 247.65625 101.496094 247.449219 101.03125 247.195312 C 98.945312 246.519531 96.875 245.777344 94.824219 244.980469 C 94.824219 244.980469 88.863281 251.695312 84.609375 256.464844 C 82.105469 259.289062 78.011719 260.0625 74.648438 258.359375 C 70.617188 256.289062 66.691406 254.023438 62.878906 251.578125 C 59.710938 249.515625 58.339844 245.574219 59.535156 241.988281 C 61.550781 235.921875 64.382812 227.402344 64.382812 227.402344 C 57.726562 222.070312 51.679688 216.023438 46.347656 209.371094 C 46.347656 209.371094 37.828125 212.203125 31.757812 214.210938 C 28.179688 215.398438 24.246094 214.027344 22.1875 210.867188 C 19.730469 207.058594 17.460938 203.132812 15.382812 199.109375 C 13.671875 195.738281 14.453125 191.640625 17.277344 189.132812 C 22.058594 184.886719 28.773438 178.925781 28.773438 178.925781 C 25.675781 170.980469 23.460938 162.71875 22.171875 154.292969 C 22.171875 154.292969 13.375 152.484375 7.117188 151.1875 C 3.417969 150.429688 0.703125 147.273438 0.496094 143.507812 C 0.269531 138.980469 0.269531 134.449219 0.484375 129.925781 C 0.6875 126.148438 3.410156 122.992188 7.113281 122.230469 C 13.375 120.945312 22.171875 119.136719 22.171875 119.136719 C 23.460938 110.710938 25.675781 102.449219 28.773438 94.503906 C 28.773438 94.503906 22.058594 88.542969 17.285156 84.289062 C 14.464844 81.785156 13.6875 77.691406 15.394531 74.324219 C 17.460938 70.296875 19.730469 66.371094 22.171875 62.558594 C 24.238281 59.390625 28.175781 58.019531 31.761719 59.210938 C 37.828125 61.226562 46.347656 64.0625 46.347656 64.0625 C 51.679688 57.40625 57.726562 51.355469 64.382812 46.027344 C 64.382812 46.027344 61.550781 37.503906 59.542969 31.4375 C 58.351562 27.855469 59.726562 23.925781 62.886719 21.863281 C 66.691406 19.40625 70.617188 17.140625 74.644531 15.058594 C 78.011719 13.351562 82.113281 14.128906 84.617188 16.957031 C 86.664062 19.257812 89.105469 22.007812 91.097656 24.234375 C 93.320312 26.734375 96.824219 27.660156 99.992188 26.578125 C 100.363281 26.453125 100.730469 26.328125 101.101562 26.210938 C 101.546875 25.972656 102.015625 25.777344 102.511719 25.621094 C 106.695312 24.339844 110.949219 23.292969 115.253906 22.488281 C 117.109375 21.824219 118.65625 20.527344 119.636719 18.847656 L 122.109375 6.792969 C 122.871094 3.089844 126.027344 0.367188 129.804688 0.160156 C 132.140625 0.0507812 134.476562 0 136.816406 0.00390625 C 139.152344 0 141.492188 0.0507812 143.828125 0.160156 C 147.601562 0.367188 150.761719 3.089844 151.523438 6.792969 L 153.996094 18.847656 C 154.972656 20.527344 156.523438 21.824219 158.378906 22.488281 C 162.683594 23.292969 166.9375 24.339844 171.121094 25.621094 C 171.617188 25.777344 172.085938 25.972656 172.53125 26.210938 C 172.898438 26.328125 173.269531 26.453125 173.640625 26.578125 C 176.804688 27.660156 180.3125 26.734375 182.535156 24.234375 C 184.523438 22.007812 186.96875 19.257812 189.011719 16.957031 C 191.519531 14.128906 195.621094 13.351562 198.992188 15.058594 C 203.015625 17.140625 206.941406 19.40625 210.746094 21.863281 C 213.90625 23.925781 215.28125 27.855469 214.089844 31.4375 C 212.082031 37.503906 209.25 46.027344 209.25 46.027344 C 213.417969 49.367188 217.347656 52.988281 221.015625 56.863281 C 221.722656 57.617188 221.914062 58.71875 221.5 59.667969 C 221.089844 60.617188 220.15625 61.230469 219.121094 61.230469 C 210.191406 61.234375 193.742188 61.234375 189.929688 61.234375 C 189.410156 61.234375 188.898438 61.074219 188.472656 60.78125 C 184.761719 58.265625 180.855469 56.011719 176.785156 54.046875 C 176.414062 53.871094 176.039062 53.691406 175.660156 53.515625 L 175.652344 53.511719 L 175.085938 53.25 L 174.546875 53.007812 L 174.496094 52.984375 L 173.945312 52.738281 L 173.414062 52.503906 L 173.332031 52.472656 L 172.789062 52.242188 L 172.269531 52.019531 L 172.160156 51.976562 L 171.628906 51.757812 L 171.105469 51.546875 L 170.984375 51.496094 L 170.480469 51.296875 L 170.457031 51.289062 L 169.9375 51.085938 L 169.796875 51.03125 L 169.347656 50.859375 L 169.269531 50.828125 L 168.757812 50.640625 L 168.609375 50.585938 L 168.183594 50.433594 L 168.070312 50.390625 L 167.5625 50.210938 L 167.410156 50.15625 L 167.003906 50.015625 L 166.867188 49.96875 L 166.363281 49.796875 L 166.210938 49.742188 L 165.8125 49.613281 L 165.660156 49.558594 L 165.152344 49.394531 L 165.003906 49.347656 L 164.605469 49.222656 L 164.441406 49.167969 L 163.9375 49.015625 L 163.792969 48.96875 L 163.390625 48.847656 L 163.21875 48.796875 L 162.710938 48.644531 L 162.582031 48.609375 L 162.167969 48.488281 L 161.992188 48.441406 L 161.476562 48.296875 L 161.371094 48.269531 L 160.933594 48.148438 L 160.753906 48.097656 L 160.285156 47.976562 L 160.222656 47.960938 L 160.171875 47.945312 L 159.691406 47.824219 L 159.515625 47.777344 L 159.070312 47.667969 L 158.96875 47.640625 L 158.441406 47.515625 L 158.269531 47.472656 L 157.835938 47.371094 L 157.710938 47.34375 L 157.183594 47.222656 L 157.015625 47.183594 L 156.59375 47.089844 L 156.453125 47.0625 L 155.921875 46.949219 L 155.761719 46.914062 L 155.335938 46.828125 L 155.1875 46.796875 L 154.652344 46.691406 L 154.503906 46.664062 L 154.070312 46.578125 L 153.917969 46.550781 L 153.375 46.453125 L 153.242188 46.429688 L 152.796875 46.351562 L 152.640625 46.324219 L 152.09375 46.230469 L 151.980469 46.214844 L 151.515625 46.136719 L 151.359375 46.113281 L 150.804688 46.027344 L 150.71875 46.011719 L 150.230469 45.941406 L 150.070312 45.921875 L 149.507812 45.84375 L 149.46875 45.835938 L 148.9375 45.765625 L 148.777344 45.746094 L 148.25 45.679688 L 148.203125 45.671875 L 147.636719 45.605469 L 147.480469 45.585938 L 146.976562 45.53125 L 146.898438 45.523438 L 146.332031 45.464844 L 146.179688 45.449219 L 145.691406 45.402344 L 145.589844 45.394531 L 145.019531 45.34375 L 144.875 45.332031 L 144.394531 45.292969 L 144.273438 45.28125 L 143.703125 45.238281 L 143.566406 45.230469 L 143.085938 45.195312 L 142.953125 45.1875 L 142.378906 45.152344 L 142.253906 45.144531 L 141.769531 45.121094 L 141.628906 45.113281 L 141.050781 45.085938 L 140.941406 45.082031 L 140.445312 45.0625 L 140.300781 45.054688 L 139.71875 45.035156 L 139.632812 45.035156 L 139.121094 45.019531 L 138.96875 45.019531 L 138.378906 45.007812 L 138.328125 45.007812 L 137.785156 45.003906 L 137.632812 45 L 137.039062 44.996094 Z M 136.402344 45 " fill-opacity="1" fill-rule="evenodd"/></g></svg>